<svg width="24" height="24" viewBox="0 0 24 24" fill="none" xmlns="http://www.w3.org/2000/svg">
<path d="M12 1.25C17.9371 1.25 22.75 6.06294 22.75 12C22.75 17.9371 17.9371 22.75 12 22.75C10.1437 22.75 8.39532 22.2789 6.87012 21.4492L2.6377 22.2373C2.39464 22.2826 2.14454 22.2051 1.96973 22.0303C1.79491 21.8555 1.71744 21.6054 1.7627 21.3623L2.55078 17.1299C1.72115 15.6047 1.25 13.8563 1.25 12C1.25 6.06294 6.06294 1.25 12 1.25ZM12 2.75C6.89137 2.75 2.75 6.89137 2.75 12C2.75 13.686 3.20078 15.2643 3.9873 16.624C4.07694 16.779 4.10796 16.9617 4.0752 17.1377L3.4375 20.5625L6.8623 19.9248C7.03828 19.892 7.22103 19.9231 7.37598 20.0127C8.73572 20.7992 10.314 21.25 12 21.25C17.1086 21.25 21.25 17.1086 21.25 12C21.25 6.89137 17.1086 2.75 12 2.75ZM7 10.75C7.69036 10.75 8.25 11.3096 8.25 12C8.25 12.6904 7.69036 13.25 7 13.25C6.30964 13.25 5.75 12.6904 5.75 12C5.75 11.3096 6.30964 10.75 7 10.75ZM12 10.75C12.6904 10.75 13.25 11.3096 13.25 12C13.25 12.6904 12.6904 13.25 12 13.25C11.3096 13.25 10.75 12.6904 10.75 12C10.75 11.3096 11.3096 10.75 12 10.75ZM17 10.75C17.6904 10.75 18.25 11.3096 18.25 12C18.25 12.6904 17.6904 13.25 17 13.25C16.3096 13.25 15.75 12.6904 15.75 12C15.75 11.3096 16.3096 10.75 17 10.75Z"/>
</svg>
