<svg width="8" height="8" viewBox="0 0 8 8" fill="none" xmlns="http://www.w3.org/2000/svg">
<circle cx="4" cy="4" r="3.75" stroke="#626363" stroke-width="0.5"/>
<path d="M3.73118 4.97727V4.95597C3.73355 4.72988 3.75722 4.54995 3.8022 4.41619C3.84718 4.28243 3.9111 4.17412 3.99396 4.09126C4.07682 4.0084 4.17625 3.93205 4.29226 3.86222C4.3621 3.8196 4.42483 3.76929 4.48047 3.71129C4.5361 3.65211 4.5799 3.58404 4.61186 3.5071C4.645 3.43016 4.66158 3.34493 4.66158 3.25142C4.66158 3.13542 4.63435 3.0348 4.5799 2.94957C4.52545 2.86435 4.45265 2.79865 4.36151 2.75249C4.27036 2.70632 4.16915 2.68324 4.05788 2.68324C3.96082 2.68324 3.86731 2.70336 3.77734 2.74361C3.68738 2.78385 3.61222 2.84718 3.55185 2.93359C3.49148 3.02 3.45656 3.13305 3.44709 3.27273H2.99964C3.00911 3.0715 3.0612 2.89927 3.15589 2.75604C3.25178 2.61281 3.37784 2.50331 3.53409 2.42756C3.69152 2.3518 3.86612 2.31392 4.05788 2.31392C4.26622 2.31392 4.44732 2.35535 4.60121 2.43821C4.75627 2.52107 4.87583 2.63471 4.95987 2.77912C5.0451 2.92353 5.08771 3.08807 5.08771 3.27273C5.08771 3.40294 5.06759 3.52071 5.02734 3.62607C4.98828 3.73142 4.93146 3.82552 4.85689 3.90838C4.7835 3.99124 4.69472 4.06463 4.59055 4.12855C4.48639 4.19366 4.40294 4.26231 4.3402 4.33452C4.27746 4.40554 4.23189 4.49018 4.20348 4.58842C4.17507 4.68667 4.15968 4.80919 4.15732 4.95597V4.97727H3.73118ZM3.95845 6.02841C3.87086 6.02841 3.79569 5.99704 3.73295 5.9343C3.67022 5.87157 3.63885 5.7964 3.63885 5.70881C3.63885 5.62121 3.67022 5.54605 3.73295 5.48331C3.79569 5.42057 3.87086 5.3892 3.95845 5.3892C4.04605 5.3892 4.12121 5.42057 4.18395 5.48331C4.24669 5.54605 4.27805 5.62121 4.27805 5.70881C4.27805 5.76681 4.26326 5.82008 4.23366 5.86861C4.20526 5.91714 4.16679 5.9562 4.11825 5.9858C4.0709 6.0142 4.01764 6.02841 3.95845 6.02841Z" fill="#626363"/>
</svg>
