<svg width="22" height="22" viewBox="0 0 22 22" fill="none" xmlns="http://www.w3.org/2000/svg">
<path d="M10.75 0C16.6871 0 21.5 4.81294 21.5 10.75C21.5 16.6871 16.6871 21.5 10.75 21.5C4.81294 21.5 0 16.6871 0 10.75C0 4.81294 4.81294 0 10.75 0ZM10.75 1.5C5.64137 1.5 1.5 5.64137 1.5 10.75C1.5 15.8586 5.64137 20 10.75 20C15.8586 20 20 15.8586 20 10.75C20 5.64137 15.8586 1.5 10.75 1.5ZM10.75 4C12.8211 4 14.5 5.67893 14.5 7.75C14.5 8.86982 14.0078 9.87342 13.2295 10.5605C15.1639 11.4865 16.5 13.4622 16.5 15.75V16.75C16.5 17.1642 16.1642 17.5 15.75 17.5C15.3358 17.5 15 17.1642 15 16.75V15.75C15 13.4028 13.0972 11.5 10.75 11.5C8.40279 11.5 6.5 13.4028 6.5 15.75V16.75C6.5 17.1642 6.16421 17.5 5.75 17.5C5.33579 17.5 5 17.1642 5 16.75V15.75C5 13.4625 6.33552 11.4866 8.26953 10.5605C7.49158 9.87343 7 8.86956 7 7.75C7 5.67893 8.67893 4 10.75 4ZM10.75 5.5C9.50736 5.5 8.5 6.50736 8.5 7.75C8.5 8.99264 9.50736 10 10.75 10C11.9926 10 13 8.99264 13 7.75C13 6.50736 11.9926 5.5 10.75 5.5Z"/>
</svg>
